<svg width="130" height="97" viewBox="0 0 130 97" fill="none" xmlns="http://www.w3.org/2000/svg">
<g clip-path="url(#clip0_50_1328)">
<path d="M79.795 15.203C78.0663 6.98349 70.4087 2.1567 62.2326 2.9163C62.0794 2.93023 61.9912 2.99984 61.8287 3.0246C61.7028 3.04316 61.7023 3.06482 61.8271 3.08957C61.9711 3.11742 62.1227 3.07101 62.2481 3.0772C63.8473 3.17311 65.4094 3.4423 66.9343 3.88476C71.6762 5.26163 75.3796 8.93123 77.1563 13.4625C77.4349 14.1742 77.7171 15.1653 78.0028 16.436C78.5435 18.8421 79.0774 21.2452 79.6046 23.6452C79.6094 23.6668 79.6184 23.6872 79.6311 23.7053C79.6437 23.7234 79.6598 23.7387 79.6784 23.7505C79.6969 23.7623 79.7176 23.7703 79.7392 23.774C79.7608 23.7777 79.7829 23.7771 79.8043 23.7721L81.4834 23.3992C81.4951 23.3968 81.5061 23.3922 81.5159 23.3855C81.5257 23.3788 81.534 23.3703 81.5405 23.3604C81.547 23.3504 81.5514 23.3393 81.5536 23.3277C81.5557 23.316 81.5556 23.3041 81.5531 23.2925C80.9898 20.5882 80.3614 17.901 79.795 15.203Z" stroke="#387F3F" stroke-width="2"/>
<path d="M59.8462 3.65426C59.7472 5.01412 59.772 6.31828 59.9174 7.60852C59.9247 7.67247 59.9603 7.69928 60.0242 7.68897C65.4502 6.82572 70.7384 9.88269 72.7812 14.8982C73.0392 15.5304 73.3198 16.5206 73.6232 17.8686C74.3474 21.0916 75.0542 24.3177 75.7434 27.5469C75.8595 28.0853 76.0049 28.8944 76.2649 29.2301C77.3545 30.6364 79.6836 30.2713 79.9622 28.4272C80.0107 28.1074 79.9581 27.5979 79.8043 26.8987C79.0037 23.2425 78.1943 19.5889 77.3761 15.9378C75.5561 7.81583 68.1384 2.7678 59.9205 3.58001C59.9014 3.58174 59.8835 3.59012 59.8699 3.60369C59.8564 3.61725 59.848 3.63515 59.8462 3.65426Z" stroke="#387F3F" stroke-width="2"/>
<path d="M59.263 7.75403C59.15 6.01979 59.2614 4.91365 59.1933 3.78894C59.1902 3.73737 59.1624 3.71623 59.1097 3.72551C50.8578 5.27875 45.0806 12.5267 45.9999 20.9426C46.068 21.5697 46.2557 22.5825 46.5632 23.981C47.2937 27.3062 48.0262 30.6308 48.7608 33.9549C48.8836 34.5108 49.0306 34.9058 49.2019 35.1399C50.2651 36.5941 52.6237 35.9877 52.8682 34.1962C52.9022 33.9415 52.8507 33.5026 52.7134 32.8797C51.8922 29.1626 51.0895 25.4425 50.3053 21.7192C48.9481 15.2742 52.8605 9.40318 59.1856 7.85923C59.2413 7.84582 59.2671 7.81075 59.263 7.75403Z" stroke="#387F3F" stroke-width="2"/>
<path d="M45.3064 17.5376C46.4578 11.3231 50.0715 6.28279 56.0422 4.03647C56.0502 4.03462 56.0572 4.02967 56.0615 4.02271C56.0659 4.01575 56.0673 4.00734 56.0654 3.99934C56.0636 3.99134 56.0586 3.9844 56.0517 3.98005C56.0447 3.9757 56.0363 3.97429 56.0283 3.97613C47.747 4.63054 41.3042 10.8311 40.9792 19.2223C40.8245 23.2312 40.6795 27.2412 40.5444 31.2522C40.5351 31.543 40.5722 31.8055 40.6558 32.0396C40.6702 32.0803 40.699 32.1143 40.7368 32.1354C40.7747 32.1564 40.819 32.1631 40.8616 32.1541L44.5635 31.3605C44.6089 31.3512 44.6327 31.3233 44.6347 31.2769C44.7565 27.7228 44.8828 24.1682 45.0139 20.6131C45.0593 19.3703 45.1568 18.3451 45.3064 17.5376Z" stroke="#FADE70" stroke-width="2"/>
<path d="M68.64 19.2608C68.7158 21.5411 68.544 23.8292 68.4759 26.1173C68.4739 26.174 68.5012 26.1967 68.558 26.1854L72.5446 25.3299C72.5859 25.3206 72.6076 25.2948 72.6096 25.2525C72.7226 21.8753 73.0847 18.6126 72.2011 15.3591C71.1069 11.3353 67.4421 8.82595 63.4864 8.18547C62.6151 8.04469 60.7657 7.8281 60.1265 8.38968C60.0708 8.43815 60.0786 8.47322 60.1497 8.49488C65.065 9.95375 68.4697 14.1463 68.64 19.2608Z" stroke="#FADE70" stroke-width="2"/>
<path d="M59.2243 8.17931C53.4579 9.58403 49.8643 15.1085 50.6258 20.8744C50.6763 21.2601 50.8827 22.2704 51.2448 23.9051C51.6534 25.745 52.0594 27.5834 52.4628 29.4203C52.4765 29.4809 52.5136 29.5336 52.5658 29.5669C52.618 29.6003 52.6811 29.6115 52.7414 29.5982L55.1309 29.0784C55.166 29.0707 55.1992 29.0561 55.2287 29.0356C55.2581 29.0151 55.2832 28.9889 55.3025 28.9587C55.3218 28.9285 55.3348 28.8949 55.341 28.8596C55.3471 28.8244 55.3462 28.7883 55.3383 28.7535C54.744 26.1184 54.1801 23.5297 53.6467 20.9873C52.8543 17.2079 53.4192 13.9421 55.8985 10.8975C56.9076 9.65829 57.9878 9.03947 59.2986 8.38507C59.3234 8.37344 59.343 8.35297 59.3535 8.32768C59.364 8.30239 59.3646 8.27409 59.3553 8.24833C59.346 8.22258 59.3274 8.20123 59.3032 8.18846C59.279 8.17569 59.2509 8.17243 59.2243 8.17931Z" stroke="#387F3F" stroke-width="2"/>
<path d="M73.3122 18.5725L73.1358 25.1165C73.1347 25.1753 73.1626 25.198 73.2193 25.1846L74.4745 24.9061C74.591 24.8803 74.637 24.8087 74.6122 24.6911C74.2067 22.8006 73.7945 20.9266 73.3756 19.0691C73.3401 18.9144 73.3896 18.7195 73.3354 18.5679C73.321 18.5276 73.3132 18.5292 73.3122 18.5725Z" stroke="#FADE70" stroke-width="2"/>
<path d="M45.4254 21.0354C45.4966 23.1162 45.3604 25.2217 45.2629 27.3335C45.2608 27.3756 45.2753 27.417 45.3034 27.4485C45.3315 27.4801 45.3709 27.4993 45.413 27.5021L46.7254 27.5794C46.8028 27.5836 46.8332 27.548 46.8167 27.4727L45.5291 21.5955C45.5219 21.5638 45.5214 21.5312 45.5275 21.4995C45.5575 21.3366 45.5502 21.1777 45.5059 21.023C45.5028 21.0134 45.4963 21.0051 45.4877 20.9997C45.479 20.9943 45.4687 20.9921 45.4588 20.9936C45.4488 20.9952 45.44 21.0003 45.4338 21.008C45.4277 21.0157 45.4247 21.0254 45.4254 21.0354Z" stroke="#FADE70" stroke-width="2"/>
<path d="M80.3845 27.1446C80.6476 28.3003 80.4417 29.3662 79.5085 30.0763C78.3788 30.938 76.6903 30.7198 75.8886 29.5085C75.2928 28.6066 75.0808 26.7578 74.7976 25.5573C74.7666 25.4243 74.6846 25.3722 74.5515 25.4011L52.8059 30.0809C52.7814 30.0862 52.7581 30.0963 52.7375 30.1107C52.7169 30.125 52.6994 30.1432 52.6858 30.1644C52.6723 30.1855 52.6631 30.2091 52.6587 30.2338C52.6544 30.2585 52.655 30.2838 52.6604 30.3083C52.8513 31.151 53.0344 31.9972 53.2098 32.847C53.3419 33.4803 53.3919 33.9408 53.3599 34.2285C53.0582 37.021 48.9585 37.1958 48.3611 34.4606C48.1362 33.4313 47.9046 32.3922 47.6663 31.3433C47.662 31.324 47.654 31.3057 47.6427 31.2894C47.6314 31.2732 47.617 31.2594 47.6003 31.2487C47.5836 31.2381 47.565 31.2309 47.5455 31.2274C47.526 31.224 47.506 31.2245 47.4867 31.2288L34.2763 34.0646C34.2458 34.0712 34.2185 34.088 34.1988 34.1122C34.1792 34.1363 34.1683 34.1664 34.1679 34.1976C33.8532 54.6393 33.5231 75.0707 33.1774 95.4917C33.1733 95.731 33.1878 95.9171 33.2208 96.0502C33.2538 96.1884 33.3399 96.2425 33.4792 96.2126L100.556 81.7678C100.617 81.7548 100.671 81.7192 100.706 81.6682C100.742 81.6172 100.758 81.5545 100.75 81.4925L92.8351 21.699C92.8308 21.6686 92.8204 21.6395 92.8045 21.6134C92.7885 21.5872 92.7674 21.5647 92.7424 21.5471C92.7174 21.5295 92.6891 21.5173 92.6592 21.5113C92.6294 21.5052 92.5986 21.5054 92.5689 21.5118L79.9465 24.2671C79.9199 24.273 79.8946 24.284 79.8723 24.2996C79.8499 24.3153 79.8309 24.3351 79.8162 24.3581C79.8015 24.3811 79.7915 24.4068 79.7868 24.4336C79.7821 24.4605 79.7827 24.488 79.7886 24.5146C79.9795 25.3665 80.1781 26.2432 80.3845 27.1446Z" stroke="#387F3F" stroke-width="2"/>
<path d="M98.789 41.4935C98.8201 41.4858 98.853 41.4902 98.8812 41.506C98.9093 41.5218 98.9305 41.5477 98.9406 41.5786L111.478 79.1657C111.53 79.3235 111.638 79.3843 111.801 79.3482L119.928 77.5923C119.956 77.5864 119.982 77.5742 120.004 77.5566C120.026 77.539 120.044 77.5166 120.056 77.491C120.069 77.4654 120.075 77.4372 120.075 77.4087C120.075 77.3802 120.069 77.352 120.056 77.3262L93.5688 22.1878C93.4099 21.8588 93.3547 21.8753 93.4032 22.2374L101.237 81.3857C101.241 81.4148 101.251 81.4428 101.267 81.4679C101.282 81.493 101.302 81.5146 101.326 81.5314C101.35 81.5483 101.377 81.56 101.406 81.5658C101.435 81.5716 101.464 81.5714 101.493 81.5652L110.732 79.5834C110.963 79.5349 111.041 79.3988 110.966 79.175L98.5057 41.8091C98.4936 41.7729 98.4905 41.7343 98.4967 41.6966C98.5029 41.6589 98.5181 41.6234 98.5411 41.5929C98.5641 41.5624 98.5942 41.538 98.6287 41.5218C98.6633 41.5055 98.7013 41.498 98.7394 41.4997C98.7539 41.4997 98.7704 41.4976 98.789 41.4935Z" stroke="#387F3F" stroke-width="2"/>
<path d="M39.9439 27.8146L26.5368 27.3149C26.4306 27.3108 26.3635 27.3598 26.3356 27.4619L9.88446 87.1254C9.87882 87.1457 9.87788 87.1671 9.8817 87.1879C9.88553 87.2086 9.89403 87.2282 9.90655 87.2452C9.91907 87.2622 9.93529 87.2761 9.95398 87.2859C9.97268 87.2957 9.99336 87.3011 10.0145 87.3018L32.7768 88.1403C32.7839 88.1405 32.7909 88.1393 32.7975 88.1367C32.804 88.1342 32.81 88.1303 32.8151 88.1254C32.8201 88.1205 32.8241 88.1147 32.8269 88.1082C32.8296 88.1017 32.831 88.0947 32.831 88.0877L33.6683 33.9239C33.6703 33.7764 33.7436 33.6872 33.888 33.6563L40.1605 32.3088C40.1729 32.306 40.1846 32.3005 40.1946 32.2926C40.2046 32.2848 40.2127 32.2749 40.2184 32.2636C40.224 32.2523 40.227 32.24 40.2272 32.2274C40.2274 32.2149 40.2247 32.2025 40.2193 32.1912C40.1048 31.9416 40.0491 31.6668 40.0522 31.3667C40.0656 30.2879 40.0929 29.1724 40.1342 28.0204C40.1353 27.9944 40.1311 27.9684 40.1221 27.944C40.1131 27.9196 40.0994 27.8972 40.0817 27.8781C40.064 27.859 40.0428 27.8435 40.0191 27.8326C39.9954 27.8217 39.9699 27.8156 39.9439 27.8146Z" stroke="#FADE70" stroke-width="2"/>
<path d="M45.3669 28.0342C45.339 28.0337 45.3119 28.0441 45.2914 28.0632C45.271 28.0822 45.2586 28.1084 45.257 28.1363L45.11 31.1051C45.1091 31.1217 45.1121 31.1384 45.1188 31.1537C45.1254 31.169 45.1354 31.1826 45.1482 31.1934C45.1609 31.2041 45.176 31.2118 45.1922 31.2158C45.2084 31.2199 45.2253 31.2201 45.2416 31.2165L47.4268 30.7307C47.4546 30.7244 47.4789 30.7074 47.4942 30.6834C47.5096 30.6593 47.5148 30.6302 47.5088 30.6023L46.9764 28.1564C46.9712 28.1326 46.9582 28.1113 46.9394 28.0959C46.9205 28.0805 46.8971 28.0718 46.8727 28.0713L45.3669 28.0342Z" stroke="#FADE70" stroke-width="2"/>
<path d="M57.8375 28.4396L55.8627 28.387C55.7657 28.385 55.7348 28.4293 55.7698 28.5201L55.889 28.8233C55.8994 28.8503 55.9192 28.8727 55.9448 28.8863C55.9704 28.9 56 28.904 56.0283 28.8976L57.8421 28.4891C57.9752 28.4592 57.9736 28.4427 57.8375 28.4396Z" stroke="#FADE70" stroke-width="2"/>
<path d="M89.969 90.1112C89.9712 90.1437 89.9855 90.1741 90.0089 90.1967C90.0323 90.2193 90.0633 90.2324 90.0959 90.2334L98.6062 90.5537C98.6259 90.5542 98.6455 90.5504 98.6635 90.5424C98.6815 90.5344 98.6975 90.5225 98.7103 90.5075C98.7231 90.4925 98.7323 90.4748 98.7373 90.4557C98.7424 90.4367 98.743 90.4168 98.7393 90.3974L97.3062 83.1C97.3029 83.0827 97.2962 83.0662 97.2864 83.0516C97.2766 83.0369 97.264 83.0244 97.2492 83.0148C97.2345 83.0051 97.218 82.9985 97.2007 82.9953C97.1833 82.9921 97.1656 82.9925 97.1484 82.9963L89.6842 84.6084C89.6529 84.615 89.6252 84.6328 89.6061 84.6584C89.587 84.6841 89.5779 84.7157 89.5805 84.7476L89.969 90.1112Z" stroke="#FADE70" stroke-width="2"/>
<path d="M79.4637 89.7274C79.4618 89.7435 79.4632 89.7599 79.468 89.7755C79.4727 89.7911 79.4807 89.8056 79.4913 89.8179C79.5019 89.8303 79.515 89.8403 79.5297 89.8474C79.5444 89.8544 79.5604 89.8583 79.5767 89.8589L89.3484 90.2023C89.3647 90.2028 89.381 90.1998 89.3962 90.1936C89.4114 90.1874 89.4251 90.1781 89.4364 90.1663C89.4478 90.1545 89.4566 90.1405 89.4622 90.1251C89.4678 90.1097 89.4702 90.0933 89.4691 90.077L89.1023 84.8712C89.1011 84.8543 89.0963 84.8379 89.0883 84.8231C89.0802 84.8083 89.069 84.7954 89.0555 84.7852C89.042 84.7751 89.0265 84.768 89.01 84.7644C88.9935 84.7608 88.9764 84.7608 88.9599 84.7644L79.9094 86.7153C79.8854 86.7202 79.8635 86.7326 79.8469 86.7506C79.8302 86.7687 79.8196 86.7915 79.8166 86.8158L79.4637 89.7274Z" stroke="#FADE70" stroke-width="2"/>
<path d="M67.5084 89.435L78.8169 89.8094C78.9046 89.8125 78.9536 89.7707 78.9639 89.6841L79.3059 86.9071C79.3121 86.8607 79.2915 86.8422 79.244 86.8514C75.441 87.6724 71.6374 88.4929 67.8334 89.3128C67.6972 89.3417 67.5878 89.3778 67.5053 89.4211C67.4888 89.4293 67.4898 89.434 67.5084 89.435Z" stroke="#FADE70" stroke-width="2"/>
<path d="M82.0439 23.1114C82.0546 23.1567 82.0827 23.1959 82.122 23.2208C82.1614 23.2457 82.2089 23.2542 82.2544 23.2444L93.1976 20.8836C93.3875 20.8424 93.5247 20.9094 93.6093 21.0847L120.739 77.6062C120.756 77.6401 120.764 77.6774 120.764 77.7151C120.764 77.7529 120.755 77.7902 120.738 77.8241C120.722 77.8581 120.698 77.8879 120.668 77.9112C120.638 77.9346 120.603 77.9509 120.566 77.9589L98.0061 82.8197C97.8431 82.8538 97.7775 82.9523 97.8095 83.1152L99.3076 90.7406C99.3154 90.7798 99.3141 90.8202 99.304 90.8588C99.2939 90.8974 99.2752 90.9332 99.2493 90.9635C99.2234 90.9939 99.191 91.018 99.1545 91.0341C99.1179 91.0501 99.0782 91.0577 99.0383 91.0562C88.043 90.6488 77.0451 90.243 66.0447 89.8387C65.3575 89.814 64.5682 90.0135 63.8207 90.1744C53.691 92.3568 43.4463 94.5634 33.0865 96.7942C32.8317 96.8489 32.7064 96.7458 32.7105 96.4848L32.8219 88.748C32.8223 88.717 32.8106 88.687 32.7892 88.6644C32.7678 88.6419 32.7384 88.6286 32.7074 88.6274L9.48381 87.7749C9.44954 87.7736 9.41602 87.7645 9.38575 87.7484C9.35547 87.7323 9.32923 87.7096 9.30899 87.6819C9.28875 87.6543 9.27503 87.6224 9.26885 87.5886C9.26268 87.5549 9.26421 87.5202 9.27334 87.4872L25.9489 27.0084C25.9648 26.952 25.9991 26.9026 26.0463 26.8681C26.0934 26.8336 26.1507 26.816 26.2089 26.8181L39.8094 27.3271C40.0591 27.3364 40.1881 27.2162 40.1963 26.9666C40.2809 24.6399 40.3655 22.3152 40.4501 19.9925C40.4986 18.6579 40.5868 17.6322 40.7148 16.9154C42.151 8.89708 49.1617 3.41124 57.265 3.47467C57.932 3.48086 58.4938 3.34627 59.1283 3.22405C59.1548 3.21902 59.1794 3.20667 59.1993 3.18837C59.2193 3.17007 59.2338 3.14654 59.2413 3.1204L59.393 2.58666C59.4061 2.53812 59.433 2.49413 59.4704 2.45981C59.9254 2.02663 60.1854 2.5155 60.385 2.84502C60.416 2.89556 60.4603 2.91412 60.5181 2.90072C68.8319 0.883363 77.7369 5.58485 79.9841 13.9528C80.7935 16.9649 81.3429 20.0931 82.0439 23.1114ZM79.7952 15.2029C78.0666 6.98338 70.4089 2.15658 62.2329 2.91619C62.0797 2.93011 61.9914 2.99973 61.8289 3.02448C61.7031 3.04304 61.7025 3.0647 61.8274 3.08946C61.9713 3.1173 62.123 3.07089 62.2483 3.07708C63.8475 3.173 65.4096 3.44218 66.9345 3.88464C71.6764 5.26151 75.3799 8.93111 77.1566 13.4624C77.4351 14.1741 77.7173 15.1652 78.0031 16.4359C78.5437 18.842 79.0777 21.2451 79.6049 23.6451C79.6097 23.6667 79.6187 23.6871 79.6313 23.7052C79.644 23.7232 79.66 23.7386 79.6786 23.7504C79.6972 23.7622 79.7179 23.7702 79.7395 23.7739C79.7611 23.7776 79.7832 23.7769 79.8045 23.772L81.4837 23.3991C81.4953 23.3967 81.5063 23.3921 81.5161 23.3854C81.5259 23.3787 81.5343 23.3702 81.5408 23.3603C81.5472 23.3503 81.5517 23.3392 81.5538 23.3276C81.556 23.3159 81.5558 23.304 81.5533 23.2924C80.99 20.5881 80.3617 17.9009 79.7952 15.2029ZM59.8464 3.65413C59.7474 5.01398 59.7722 6.31815 59.9176 7.60839C59.9249 7.67233 59.9604 7.69915 60.0244 7.68883C65.4504 6.82558 70.7386 9.88255 72.7814 14.8981C73.0394 15.5303 73.32 16.5204 73.6233 17.8684C74.3476 21.0914 75.0544 24.3176 75.7436 27.5468C75.8596 28.0851 76.0051 28.8942 76.2651 29.2299C77.3547 30.6362 79.6838 30.2711 79.9624 28.427C80.0109 28.1073 79.9583 27.5978 79.8045 26.8985C79.0039 23.2424 78.1945 19.5887 77.3763 15.9377C75.5563 7.81569 68.1386 2.76767 59.9207 3.57987C59.9016 3.5816 59.8837 3.58998 59.8701 3.60355C59.8565 3.61712 59.8482 3.63502 59.8464 3.65413ZM59.263 7.75381C59.15 6.01957 59.2614 4.91343 59.1933 3.78872C59.1902 3.73715 59.1624 3.71601 59.1098 3.72529C50.8579 5.27853 45.0806 12.5265 45.9999 20.9424C46.068 21.5695 46.2558 22.5823 46.5632 23.9808C47.2937 27.3059 48.0262 30.6305 48.7608 33.9546C48.8836 34.5105 49.0306 34.9056 49.2019 35.1397C50.2651 36.5939 52.6237 35.9875 52.8682 34.196C52.9023 33.9412 52.8507 33.5024 52.7135 32.8794C51.8922 29.1624 51.0895 25.4423 50.3054 21.719C48.9481 15.274 52.8605 9.40296 59.1856 7.85901C59.2413 7.8456 59.2671 7.81053 59.263 7.75381ZM45.3066 17.5374C46.458 11.3229 50.0717 6.28257 56.0424 4.03625C56.0504 4.0344 56.0573 4.02945 56.0617 4.02249C56.066 4.01553 56.0674 4.00712 56.0656 3.99912C56.0638 3.99112 56.0588 3.98418 56.0518 3.97983C56.0449 3.97548 56.0365 3.97407 56.0285 3.97591C47.7472 4.63032 41.3044 10.8309 40.9794 19.2221C40.8246 23.231 40.6797 27.241 40.5445 31.2519C40.5352 31.5428 40.5724 31.8053 40.656 32.0394C40.6703 32.0801 40.6991 32.1141 40.737 32.1351C40.7749 32.1562 40.8192 32.1628 40.8618 32.1539L44.5637 31.3602C44.6091 31.351 44.6328 31.3231 44.6349 31.2767C44.7566 27.7226 44.883 24.168 45.014 20.6129C45.0594 19.3701 45.1569 18.3449 45.3066 17.5374ZM68.64 19.2608C68.7158 21.5411 68.5441 23.8292 68.476 26.1173C68.4739 26.174 68.5012 26.1967 68.558 26.1854L72.5447 25.3298C72.5859 25.3206 72.6076 25.2948 72.6097 25.2525C72.7226 21.8753 73.0848 18.6125 72.2011 15.3591C71.1069 11.3352 67.4422 8.82591 63.4864 8.18544C62.6151 8.04465 60.7657 7.82807 60.1266 8.38965C60.0708 8.43812 60.0786 8.47319 60.1498 8.49485C65.065 9.95371 68.4698 14.1462 68.64 19.2608ZM59.2243 8.17925C53.4579 9.58397 49.8643 15.1085 50.6257 20.8743C50.6763 21.2601 50.8826 22.2703 51.2448 23.905C51.6533 25.745 52.0593 27.5834 52.4627 29.4202C52.4765 29.4808 52.5135 29.5335 52.5657 29.5669C52.6179 29.6002 52.681 29.6114 52.7413 29.5981L55.1308 29.0783C55.1659 29.0706 55.1992 29.0561 55.2286 29.0355C55.2581 29.015 55.2832 28.9889 55.3024 28.9587C55.3217 28.9285 55.3348 28.8948 55.3409 28.8596C55.3471 28.8244 55.3462 28.7883 55.3382 28.7535C54.7439 26.1183 54.1801 23.5296 53.6467 20.9873C52.8543 17.2078 53.4192 13.942 55.8985 10.8974C56.9075 9.65823 57.9877 9.03941 59.2986 8.38501C59.3234 8.37338 59.3429 8.35291 59.3534 8.32762C59.3639 8.30233 59.3646 8.27403 59.3553 8.24827C59.346 8.22252 59.3274 8.20116 59.3032 8.1884C59.2789 8.17563 59.2508 8.17236 59.2243 8.17925ZM59.0448 8.89399C55.6091 10.6917 53.5941 14.8919 53.7844 18.6543C53.8143 19.2474 53.9856 20.2633 54.2982 21.702C54.7367 23.7152 55.1706 25.7181 55.5998 27.7107C55.612 27.7671 55.643 27.8177 55.6877 27.8542C55.7324 27.8908 55.7881 27.9111 55.8458 27.9119C57.4492 27.9413 59.2908 28.195 60.7054 27.8887C63.1145 27.3699 65.5205 26.849 67.9235 26.3261C67.9415 26.3226 67.9578 26.313 67.9696 26.2989C67.9814 26.2849 67.9881 26.2672 67.9885 26.2488C68.0442 24.2222 68.1773 22.2466 68.2051 20.2478C68.2732 15.3668 65.6361 11.0877 61.0242 9.3055C60.9705 9.28487 60.921 9.29261 60.8756 9.32871C60.4629 9.65462 60.0755 9.61285 59.7133 9.20339C59.7011 9.18909 59.6916 9.17283 59.6855 9.15544C59.5741 8.81509 59.3605 8.72794 59.0448 8.89399ZM73.3123 18.5723L73.1358 25.1163C73.1348 25.1751 73.1627 25.1978 73.2194 25.1844L74.4745 24.9059C74.5911 24.8802 74.637 24.8085 74.6123 24.6909C74.2068 22.8004 73.7946 20.9264 73.3757 19.0689C73.3401 18.9142 73.3896 18.7193 73.3355 18.5677C73.321 18.5275 73.3133 18.529 73.3123 18.5723ZM45.4257 21.0352C45.4969 23.116 45.3607 25.2215 45.2632 27.3333C45.2611 27.3754 45.2756 27.4168 45.3037 27.4483C45.3318 27.4799 45.3712 27.4991 45.4133 27.5019L46.7257 27.5792C46.8031 27.5834 46.8335 27.5478 46.817 27.4725L45.5294 21.5953C45.5223 21.5637 45.5217 21.531 45.5279 21.4993C45.5578 21.3364 45.5506 21.1776 45.5062 21.0229C45.5031 21.0132 45.4967 21.0049 45.488 20.9995C45.4793 20.9941 45.469 20.9919 45.4591 20.9935C45.4492 20.995 45.4403 21.0001 45.4341 21.0078C45.428 21.0155 45.425 21.0252 45.4257 21.0352ZM80.3849 27.1445C80.648 28.3002 80.4422 29.3661 79.5089 30.0762C78.3792 30.9379 76.6907 30.7198 75.8891 29.5084C75.2932 28.6065 75.0812 26.7578 74.798 25.5573C74.767 25.4242 74.685 25.3721 74.5519 25.401L52.8063 30.0808C52.7818 30.0861 52.7586 30.0962 52.7379 30.1106C52.7173 30.1249 52.6998 30.1431 52.6863 30.1643C52.6727 30.1854 52.6635 30.209 52.6592 30.2337C52.6548 30.2584 52.6554 30.2838 52.6608 30.3082C52.8517 31.1509 53.0348 31.9971 53.2102 32.847C53.3423 33.4802 53.3923 33.9407 53.3604 34.2285C53.0586 37.0209 48.9589 37.1957 48.3615 34.4605C48.1366 33.4312 47.905 32.3921 47.6667 31.3432C47.6625 31.3239 47.6545 31.3056 47.6431 31.2894C47.6318 31.2731 47.6174 31.2593 47.6007 31.2487C47.584 31.238 47.5654 31.2308 47.5459 31.2274C47.5264 31.2239 47.5065 31.2244 47.4871 31.2287L34.2767 34.0645C34.2462 34.0711 34.2189 34.0879 34.1992 34.1121C34.1796 34.1362 34.1687 34.1664 34.1683 34.1975C33.8537 54.6392 33.5235 75.0706 33.1779 95.4916C33.1737 95.7309 33.1882 95.9171 33.2212 96.0501C33.2542 96.1883 33.3404 96.2425 33.4796 96.2125L100.557 81.7677C100.617 81.7547 100.671 81.7192 100.707 81.6681C100.743 81.6171 100.758 81.5544 100.75 81.4924L92.8355 21.6989C92.8312 21.6686 92.8208 21.6394 92.8049 21.6133C92.7889 21.5871 92.7678 21.5646 92.7428 21.547C92.7178 21.5295 92.6895 21.5173 92.6597 21.5112C92.6298 21.5051 92.599 21.5053 92.5693 21.5117L79.9469 24.267C79.9203 24.2729 79.8951 24.2839 79.8727 24.2995C79.8503 24.3152 79.8313 24.335 79.8166 24.358C79.8019 24.381 79.792 24.4067 79.7872 24.4335C79.7825 24.4604 79.7831 24.4879 79.7891 24.5145C79.9799 25.3665 80.1785 26.2431 80.3849 27.1445ZM98.7892 41.4934C98.8203 41.4857 98.8532 41.4902 98.8814 41.5059C98.9095 41.5217 98.9308 41.5477 98.9408 41.5785L111.478 79.1656C111.531 79.3234 111.639 79.3843 111.802 79.3482L119.928 77.5923C119.956 77.5863 119.982 77.5741 120.004 77.5565C120.026 77.539 120.044 77.5165 120.057 77.4909C120.069 77.4653 120.075 77.4372 120.075 77.4086C120.075 77.3801 120.069 77.3519 120.057 77.3262L93.5691 22.1878C93.4102 21.8588 93.355 21.8753 93.4035 22.2373L101.238 81.3856C101.242 81.4147 101.252 81.4427 101.267 81.4678C101.282 81.4929 101.302 81.5145 101.326 81.5314C101.35 81.5482 101.378 81.5599 101.406 81.5657C101.435 81.5715 101.464 81.5713 101.493 81.5651L110.732 79.5833C110.963 79.5348 111.041 79.3987 110.966 79.1749L98.506 41.809C98.4939 41.7728 98.4908 41.7342 98.4969 41.6965C98.5031 41.6589 98.5183 41.6233 98.5413 41.5928C98.5644 41.5624 98.5944 41.538 98.629 41.5217C98.6635 41.5055 98.7015 41.4979 98.7397 41.4996C98.7541 41.4996 98.7706 41.4975 98.7892 41.4934ZM39.9441 27.8144L26.537 27.3147C26.4308 27.3106 26.3637 27.3596 26.3358 27.4617L9.88465 87.1252C9.87901 87.1455 9.87807 87.1669 9.88189 87.1876C9.88572 87.2084 9.89422 87.228 9.90674 87.245C9.91926 87.262 9.93548 87.2759 9.95417 87.2857C9.97287 87.2955 9.99355 87.3009 10.0146 87.3015L32.777 88.14C32.7841 88.1403 32.7911 88.139 32.7976 88.1365C32.8042 88.1339 32.8102 88.1301 32.8152 88.1252C32.8203 88.1203 32.8243 88.1144 32.827 88.1079C32.8298 88.1015 32.8312 88.0945 32.8312 88.0874L33.6685 33.9237C33.6705 33.7762 33.7438 33.687 33.8882 33.6561L40.1607 32.3086C40.1731 32.3057 40.1848 32.3002 40.1948 32.2924C40.2048 32.2846 40.2129 32.2746 40.2186 32.2634C40.2242 32.2521 40.2272 32.2397 40.2274 32.2272C40.2276 32.2147 40.2249 32.2023 40.2195 32.191C40.105 31.9414 40.0493 31.6666 40.0524 31.3664C40.0658 30.2876 40.0931 29.1722 40.1344 28.0202C40.1354 27.9941 40.1313 27.9682 40.1223 27.9438C40.1133 27.9193 40.0996 27.8969 40.0819 27.8778C40.0642 27.8587 40.0429 27.8433 40.0193 27.8324C39.9956 27.8215 39.9701 27.8154 39.9441 27.8144ZM45.3669 28.0341C45.339 28.0336 45.3119 28.044 45.2914 28.063C45.271 28.0821 45.2586 28.1083 45.257 28.1362L45.11 31.105C45.1091 31.1216 45.1121 31.1383 45.1187 31.1536C45.1254 31.1689 45.1354 31.1825 45.1482 31.1932C45.1609 31.204 45.176 31.2117 45.1922 31.2157C45.2084 31.2197 45.2253 31.22 45.2416 31.2164L47.4268 30.7306C47.4546 30.7243 47.4788 30.7073 47.4942 30.6832C47.5096 30.6592 47.5148 30.6301 47.5088 30.6022L46.9764 28.1563C46.9712 28.1325 46.9582 28.1112 46.9394 28.0958C46.9205 28.0803 46.8971 28.0717 46.8727 28.0712L45.3669 28.0341ZM57.8376 28.4394L55.8629 28.3868C55.7659 28.3847 55.7349 28.4291 55.77 28.5199L55.8892 28.8231C55.8996 28.8501 55.9194 28.8725 55.945 28.8861C55.9706 28.8998 56.0002 28.9037 56.0285 28.8973L57.8423 28.4889C57.9754 28.459 57.9738 28.4425 57.8376 28.4394ZM89.9693 90.111C89.9716 90.1434 89.9858 90.1739 90.0092 90.1965C90.0327 90.219 90.0637 90.2321 90.0962 90.2332L98.6066 90.5534C98.6263 90.554 98.6458 90.5502 98.6638 90.5422C98.6819 90.5342 98.6978 90.5223 98.7106 90.5073C98.7234 90.4922 98.7326 90.4746 98.7377 90.4555C98.7427 90.4365 98.7434 90.4165 98.7397 90.3972L97.3066 83.0998C97.3032 83.0825 97.2965 83.066 97.2867 83.0514C97.2769 83.0367 97.2643 83.0242 97.2496 83.0145C97.2348 83.0049 97.2183 82.9983 97.201 82.9951C97.1837 82.9919 97.1659 82.9923 97.1487 82.9961L89.6845 84.6081C89.6533 84.6148 89.6255 84.6326 89.6064 84.6582C89.5874 84.6838 89.5783 84.7155 89.5808 84.7474L89.9693 90.111ZM79.4641 89.7273C79.4621 89.7435 79.4636 89.7599 79.4683 89.7755C79.4731 89.7911 79.481 89.8055 79.4916 89.8179C79.5022 89.8303 79.5153 89.8403 79.53 89.8473C79.5447 89.8544 79.5607 89.8583 79.577 89.8588L89.3487 90.2023C89.3651 90.2027 89.3814 90.1998 89.3965 90.1936C89.4117 90.1874 89.4254 90.1781 89.4368 90.1663C89.4481 90.1545 89.4569 90.1405 89.4625 90.1251C89.4682 90.1097 89.4705 90.0933 89.4694 90.077L89.1026 84.8711C89.1015 84.8543 89.0967 84.8379 89.0886 84.8231C89.0805 84.8082 89.0694 84.7953 89.0559 84.7852C89.0424 84.7751 89.0268 84.768 89.0103 84.7644C88.9938 84.7608 88.9767 84.7608 88.9603 84.7644L79.9098 86.7152C79.8857 86.7202 79.8638 86.7326 79.8472 86.7506C79.8305 86.7686 79.82 86.7914 79.8169 86.8158L79.4641 89.7273ZM67.5087 89.4349L78.8172 89.8093C78.9048 89.8124 78.9539 89.7706 78.9642 89.684L79.3062 86.9071C79.3124 86.8606 79.2917 86.8421 79.2443 86.8514C75.4413 87.6723 71.6377 88.4928 67.8337 89.3127C67.6975 89.3416 67.5881 89.3777 67.5056 89.421C67.4891 89.4293 67.4901 89.4339 67.5087 89.4349Z" fill="black"/>
<path d="M62.2331 2.9163C70.4092 2.1567 78.0668 6.98349 79.7955 15.203C80.3619 17.901 80.9902 20.5882 81.5536 23.2925C81.5561 23.3041 81.5562 23.316 81.5541 23.3277C81.5519 23.3393 81.5475 23.3504 81.541 23.3604C81.5345 23.3703 81.5262 23.3788 81.5164 23.3855C81.5066 23.3922 81.4955 23.3968 81.4839 23.3992L79.8048 23.7721C79.7834 23.7771 79.7613 23.7777 79.7397 23.774C79.7181 23.7703 79.6974 23.7623 79.6788 23.7505C79.6603 23.7387 79.6442 23.7234 79.6315 23.7053C79.6189 23.6872 79.6099 23.6668 79.6051 23.6452C79.0779 21.2452 78.544 18.8421 78.0033 16.436C77.7175 15.1653 77.4354 14.1742 77.1568 13.4625C75.3801 8.93123 71.6767 5.26163 66.9348 3.88476C65.4098 3.4423 63.8478 3.17311 62.2486 3.0772C62.1232 3.07101 61.9715 3.11742 61.8276 3.08957C61.7028 3.06482 61.7033 3.04316 61.8292 3.0246C61.9917 2.99984 62.0799 2.93023 62.2331 2.9163Z" fill="#387F3F"/>
<path d="M59.8462 3.65402C59.848 3.63491 59.8564 3.61701 59.8699 3.60344C59.8835 3.58987 59.9014 3.58149 59.9205 3.57976C68.1384 2.76756 75.5561 7.81558 77.3761 15.9376C78.1943 19.5886 79.0037 23.2422 79.8043 26.8984C79.9581 27.5977 80.0107 28.1072 79.9622 28.4269C79.6836 30.271 77.3545 30.6361 76.2649 29.2298C76.0049 28.8941 75.8595 28.085 75.7434 27.5467C75.0542 24.3174 74.3474 21.0913 73.6232 17.8683C73.3198 16.5203 73.0392 15.5302 72.7812 14.898C70.7384 9.88244 65.4502 6.82547 60.0242 7.68872C59.9603 7.69904 59.9247 7.67222 59.9174 7.60828C59.772 6.31804 59.7472 5.01388 59.8462 3.65402Z" fill="#387F3F"/>
<path d="M59.1933 3.7887C59.2614 4.9134 59.15 6.01954 59.263 7.75379C59.2671 7.81051 59.2413 7.84558 59.1856 7.85898C52.8605 9.40294 48.9481 15.274 50.3053 21.719C51.0895 25.4422 51.8922 29.1624 52.7134 32.8794C52.8507 33.5024 52.9022 33.9412 52.8682 34.196C52.6237 35.9874 50.2651 36.5939 49.2019 35.1397C49.0306 34.9055 48.8836 34.5105 48.7608 33.9546C48.0262 30.6305 47.2937 27.3059 46.5632 23.9808C46.2557 22.5823 46.068 21.5695 45.9999 20.9424C45.0806 12.5264 50.8578 5.27851 59.1097 3.72527C59.1624 3.71599 59.1902 3.73713 59.1933 3.7887Z" fill="#387F3F"/>
<path d="M56.0422 4.03623C50.0715 6.28254 46.4578 11.3228 45.3064 17.5373C45.1568 18.3449 45.0593 19.3701 45.0139 20.6129C44.8829 24.168 44.7565 27.7226 44.6347 31.2767C44.6327 31.3231 44.6089 31.3509 44.5635 31.3602L40.8616 32.1538C40.819 32.1628 40.7747 32.1562 40.7368 32.1351C40.699 32.114 40.6702 32.08 40.6558 32.0394C40.5722 31.8052 40.5351 31.5428 40.5444 31.2519C40.6795 27.2409 40.8245 23.231 40.9792 19.2221C41.3042 10.8309 47.747 4.63029 56.0283 3.97589C56.0363 3.97404 56.0447 3.97545 56.0517 3.9798C56.0586 3.98416 56.0636 3.9911 56.0654 3.9991C56.0673 4.0071 56.0659 4.0155 56.0615 4.02247C56.0572 4.02943 56.0502 4.03438 56.0422 4.03623Z" fill="#FADE70"/>
<path d="M68.4759 26.1173C68.544 23.8292 68.7158 21.5411 68.64 19.2608C68.4697 14.1463 65.065 9.95375 60.1497 8.49488C60.0786 8.47322 60.0708 8.43815 60.1265 8.38968C60.7657 7.8281 62.6151 8.04469 63.4864 8.18547C67.4421 8.82595 71.1069 11.3353 72.2011 15.3591C73.0847 18.6126 72.7226 21.8753 72.6096 25.2525C72.6076 25.2948 72.5859 25.3206 72.5446 25.3299L68.558 26.1854C68.5012 26.1967 68.4739 26.174 68.4759 26.1173Z" fill="#FADE70"/>
<path d="M50.6258 20.8744C49.8643 15.1085 53.4579 9.58403 59.2243 8.17931C59.2509 8.17243 59.279 8.17569 59.3032 8.18846C59.3274 8.20123 59.346 8.22258 59.3553 8.24833C59.3646 8.27409 59.364 8.30239 59.3535 8.32768C59.343 8.35297 59.3234 8.37344 59.2986 8.38507C57.9878 9.03947 56.9076 9.65829 55.8985 10.8975C53.4192 13.9421 52.8543 17.2079 53.6467 20.9873C54.1801 23.5297 54.744 26.1184 55.3383 28.7535C55.3462 28.7883 55.3471 28.8244 55.341 28.8596C55.3348 28.8949 55.3218 28.9285 55.3025 28.9587C55.2832 28.9889 55.2581 29.0151 55.2287 29.0356C55.1992 29.0561 55.166 29.0707 55.1309 29.0784L52.7414 29.5982C52.6811 29.6115 52.618 29.6003 52.5658 29.5669C52.5136 29.5336 52.4765 29.4809 52.4628 29.4203C52.0594 27.5834 51.6534 25.745 51.2448 23.9051C50.8827 22.2704 50.6763 21.2601 50.6258 20.8744Z" fill="#387F3F"/>
<path d="M73.1358 25.1163L73.3122 18.5723C73.3132 18.5289 73.321 18.5274 73.3354 18.5676C73.3896 18.7192 73.3401 18.9142 73.3756 19.0689C73.7945 20.9264 74.2067 22.8004 74.6122 24.6908C74.637 24.8084 74.591 24.8801 74.4745 24.9059L73.2193 25.1844C73.1626 25.1978 73.1347 25.1751 73.1358 25.1163Z" fill="#FADE70"/>
<path d="M45.2634 27.3332C45.3609 25.2215 45.4971 23.116 45.4259 21.0352C45.4252 21.0252 45.4281 21.0154 45.4343 21.0077C45.4405 21 45.4493 20.9949 45.4593 20.9934C45.4692 20.9919 45.4795 20.994 45.4882 20.9994C45.4968 21.0049 45.5033 21.0132 45.5064 21.0228C45.5507 21.1775 45.5579 21.3363 45.528 21.4993C45.5219 21.5309 45.5224 21.5636 45.5296 21.5952L46.8172 27.4724C46.8337 27.5477 46.8033 27.5833 46.7259 27.5792L45.4135 27.5018C45.3714 27.4991 45.332 27.4798 45.3039 27.4483C45.2758 27.4167 45.2613 27.3754 45.2634 27.3332Z" fill="#FADE70"/>
<path d="M79.509 30.0763C80.4422 29.3662 80.6481 28.3003 80.385 27.1446C80.1786 26.2432 79.98 25.3665 79.7891 24.5146C79.7832 24.488 79.7826 24.4605 79.7873 24.4336C79.792 24.4068 79.802 24.3811 79.8167 24.3581C79.8313 24.3351 79.8504 24.3153 79.8728 24.2996C79.8951 24.284 79.9203 24.273 79.947 24.2671L92.5694 21.5118C92.5991 21.5054 92.6299 21.5052 92.6597 21.5113C92.6896 21.5173 92.7179 21.5295 92.7429 21.5471C92.7679 21.5647 92.789 21.5872 92.8049 21.6134C92.8209 21.6395 92.8313 21.6686 92.8356 21.699L100.75 81.4925C100.758 81.5545 100.743 81.6172 100.707 81.6682C100.671 81.7192 100.617 81.7548 100.557 81.7678L33.4797 96.2126C33.3404 96.2425 33.2543 96.1884 33.2213 96.0502C33.1883 95.9171 33.1738 95.731 33.1779 95.4917C33.5236 75.0707 33.8537 54.6393 34.1684 34.1976C34.1687 34.1664 34.1796 34.1363 34.1993 34.1122C34.219 34.088 34.2463 34.0712 34.2767 34.0646L47.4872 31.2288C47.5065 31.2245 47.5265 31.224 47.546 31.2274C47.5655 31.2309 47.5841 31.2381 47.6008 31.2487C47.6175 31.2594 47.6319 31.2732 47.6432 31.2894C47.6545 31.3057 47.6625 31.324 47.6667 31.3433C47.9051 32.3922 48.1367 33.4313 48.3616 34.4606C48.959 37.1958 53.0586 37.021 53.3604 34.2285C53.3924 33.9408 53.3424 33.4803 53.2103 32.847C53.0349 31.9972 52.8518 31.151 52.6609 30.3083C52.6554 30.2838 52.6549 30.2585 52.6592 30.2338C52.6636 30.2091 52.6728 30.1855 52.6863 30.1644C52.6998 30.1432 52.7174 30.125 52.738 30.1107C52.7586 30.0963 52.7819 30.0862 52.8064 30.0809L74.552 25.4011C74.6851 25.3722 74.7671 25.4243 74.7981 25.5573C75.0813 26.7578 75.2933 28.6066 75.8891 29.5085C76.6908 30.7198 78.3792 30.938 79.509 30.0763Z" fill="#387F3F"/>
<path d="M98.789 41.4935C98.7704 41.4976 98.7539 41.4997 98.7394 41.4997C98.7013 41.498 98.6633 41.5055 98.6287 41.5218C98.5942 41.538 98.5641 41.5624 98.5411 41.5929C98.5181 41.6234 98.5029 41.6589 98.4967 41.6966C98.4905 41.7343 98.4936 41.7729 98.5057 41.8091L110.966 79.175C111.041 79.3988 110.963 79.5349 110.732 79.5834L101.493 81.5652C101.464 81.5714 101.435 81.5716 101.406 81.5658C101.377 81.56 101.35 81.5483 101.326 81.5314C101.302 81.5146 101.282 81.493 101.267 81.4679C101.251 81.4428 101.241 81.4148 101.237 81.3857L93.4032 22.2374C93.3547 21.8753 93.4099 21.8588 93.5688 22.1878L120.056 77.3262C120.069 77.352 120.075 77.3802 120.075 77.4087C120.075 77.4372 120.069 77.4654 120.056 77.491C120.044 77.5166 120.026 77.5391 120.004 77.5566C119.982 77.5742 119.956 77.5864 119.928 77.5923L111.801 79.3482C111.638 79.3843 111.53 79.3235 111.478 79.1657L98.9406 41.5786C98.9305 41.5477 98.9093 41.5218 98.8812 41.506C98.853 41.4902 98.8201 41.4858 98.789 41.4935Z" fill="#387F3F"/>
<path d="M26.5368 27.3147L39.9439 27.8144C39.9699 27.8154 39.9954 27.8215 40.0191 27.8324C40.0428 27.8433 40.064 27.8587 40.0817 27.8778C40.0994 27.8969 40.1131 27.9193 40.1221 27.9438C40.1311 27.9682 40.1353 27.9941 40.1342 28.0201C40.0929 29.1722 40.0656 30.2876 40.0522 31.3664C40.0491 31.6665 40.1048 31.9414 40.2193 32.191C40.2247 32.2023 40.2274 32.2147 40.2272 32.2272C40.227 32.2397 40.224 32.2521 40.2184 32.2634C40.2127 32.2746 40.2046 32.2846 40.1946 32.2924C40.1846 32.3002 40.1729 32.3057 40.1605 32.3086L33.888 33.656C33.7436 33.687 33.6703 33.7762 33.6683 33.9237L32.831 88.0874C32.831 88.0945 32.8296 88.1014 32.8269 88.1079C32.8241 88.1144 32.8201 88.1203 32.8151 88.1252C32.81 88.1301 32.804 88.1339 32.7974 88.1365C32.7909 88.139 32.7839 88.1402 32.7768 88.14L10.0145 87.3015C9.99336 87.3009 9.97268 87.2955 9.95398 87.2857C9.93529 87.2759 9.91907 87.2619 9.90655 87.245C9.89403 87.228 9.88553 87.2084 9.8817 87.1876C9.87788 87.1669 9.87882 87.1455 9.88446 87.1252L26.3356 27.4617C26.3635 27.3596 26.4306 27.3106 26.5368 27.3147Z" fill="#FADE70"/>
<path d="M45.3669 28.0342L46.8727 28.0713C46.8971 28.0718 46.9205 28.0805 46.9394 28.0959C46.9582 28.1113 46.9712 28.1326 46.9764 28.1564L47.5088 30.6023C47.5148 30.6302 47.5096 30.6593 47.4942 30.6834C47.4789 30.7074 47.4546 30.7244 47.4268 30.7307L45.2416 31.2165C45.2253 31.2201 45.2084 31.2199 45.1922 31.2158C45.176 31.2118 45.1609 31.2041 45.1482 31.1934C45.1354 31.1826 45.1254 31.169 45.1188 31.1537C45.1121 31.1384 45.1091 31.1217 45.11 31.1051L45.257 28.1363C45.2586 28.1084 45.271 28.0822 45.2914 28.0632C45.3119 28.0441 45.339 28.0337 45.3669 28.0342Z" fill="#FADE70"/>
<path d="M55.8627 28.3868L57.8375 28.4394C57.9736 28.4425 57.9752 28.459 57.8421 28.4889L56.0283 28.8973C56 28.9037 55.9704 28.8997 55.9448 28.8861C55.9192 28.8725 55.8994 28.8501 55.889 28.8231L55.7698 28.5198C55.7348 28.4291 55.7657 28.3847 55.8627 28.3868Z" fill="#FADE70"/>
<path d="M89.9695 90.111L89.581 84.7473C89.5784 84.7155 89.5875 84.6838 89.6066 84.6582C89.6257 84.6326 89.6534 84.6148 89.6847 84.6081L97.1488 82.9961C97.166 82.9922 97.1838 82.9919 97.2012 82.9951C97.2185 82.9982 97.235 83.0048 97.2497 83.0145C97.2644 83.0242 97.2771 83.0367 97.2869 83.0513C97.2967 83.066 97.3034 83.0824 97.3067 83.0997L98.7398 90.3972C98.7435 90.4165 98.7428 90.4364 98.7378 90.4555C98.7328 90.4745 98.7236 90.4922 98.7108 90.5072C98.698 90.5222 98.682 90.5342 98.664 90.5422C98.646 90.5502 98.6264 90.554 98.6067 90.5534L90.0963 90.2332C90.0638 90.2321 90.0328 90.219 90.0094 90.1964C89.986 90.1739 89.9717 90.1434 89.9695 90.111Z" fill="#FADE70"/>
<path d="M79.4642 89.7274L79.8171 86.8158C79.8201 86.7915 79.8307 86.7687 79.8474 86.7506C79.864 86.7326 79.8859 86.7202 79.9099 86.7153L88.9604 84.7644C88.9769 84.7608 88.994 84.7608 89.0105 84.7644C89.027 84.768 89.0425 84.7751 89.056 84.7852C89.0695 84.7954 89.0807 84.8083 89.0888 84.8231C89.0968 84.8379 89.1016 84.8543 89.1028 84.8712L89.4696 90.077C89.4706 90.0933 89.4683 90.1097 89.4627 90.1251C89.4571 90.1405 89.4483 90.1545 89.4369 90.1663C89.4256 90.1781 89.4119 90.1874 89.3967 90.1936C89.3815 90.1998 89.3652 90.2028 89.3489 90.2023L79.5772 89.8589C79.5609 89.8583 79.5449 89.8544 79.5302 89.8474C79.5155 89.8403 79.5024 89.8303 79.4918 89.8179C79.4811 89.8056 79.4732 89.7911 79.4685 89.7755C79.4637 89.7599 79.4623 89.7435 79.4642 89.7274Z" fill="#FADE70"/>
<path d="M78.8173 89.8094L67.5089 89.435C67.4903 89.434 67.4893 89.4293 67.5058 89.4211C67.5883 89.3778 67.6977 89.3417 67.8339 89.3128C71.6379 88.4929 75.4415 87.6724 79.2445 86.8514C79.2919 86.8422 79.3126 86.8607 79.3064 86.9071L78.9644 89.6841C78.9541 89.7707 78.905 89.8125 78.8173 89.8094Z" fill="#FADE70"/>
</g>
<defs>
<clipPath id="clip0_50_1328">
<rect width="130" height="97" fill="white"/>
</clipPath>
</defs>
</svg>
