<svg width="12" height="12" viewBox="0 0 12 12" fill="none" xmlns="http://www.w3.org/2000/svg">
<path d="M8.25 11.3751H3.75C2.1 11.3751 1.875 10.4751 1.875 9.50011V5.11011C1.875 4.90511 2.045 4.73511 2.25 4.73511C2.455 4.73511 2.625 4.90511 2.625 5.11011V9.50011C2.625 10.3701 2.775 10.6251 3.75 10.6251H8.25C9.225 10.6251 9.375 10.3701 9.375 9.50011V5.11011C9.375 4.90511 9.545 4.73511 9.75 4.73511C9.955 4.73511 10.125 4.90511 10.125 5.11011V9.50011C10.125 10.4751 9.9 11.3751 8.25 11.3751Z" fill="#387F3F"/>
<path d="M9.5 5.375H2.5C1.29 5.375 0.625 4.71 0.625 3.5V2.5C0.625 1.29 1.29 0.625 2.5 0.625H9.5C10.71 0.625 11.375 1.29 11.375 2.5V3.5C11.375 4.71 10.71 5.375 9.5 5.375ZM2.5 1.375C1.71 1.375 1.375 1.71 1.375 2.5V3.5C1.375 4.29 1.71 4.625 2.5 4.625H9.5C10.29 4.625 10.625 4.29 10.625 3.5V2.5C10.625 1.71 10.29 1.375 9.5 1.375H2.5Z" fill="#387F3F"/>
<path d="M6.91009 7.375H5.09009C4.88509 7.375 4.71509 7.205 4.71509 7C4.71509 6.795 4.88509 6.625 5.09009 6.625H6.91009C7.11509 6.625 7.28509 6.795 7.28509 7C7.28509 7.205 7.11509 7.375 6.91009 7.375Z" fill="#387F3F"/>
</svg>
