<svg width="25" height="25" viewBox="0 0 25 25" fill="none" xmlns="http://www.w3.org/2000/svg">
<path d="M18.29 23.25H6.71C3.97 23.25 1.75 21.02 1.75 18.28V10.87C1.75 9.51 2.59 7.8 3.67 6.96L9.06 2.76C10.68 1.5 13.27 1.44 14.95 2.62L21.13 6.95C22.32 7.78 23.25 9.56001 23.25 11.01V18.29C23.25 21.02 21.03 23.25 18.29 23.25ZM9.98 3.94L4.59 8.14C3.88 8.7 3.25 9.97001 3.25 10.87V18.28C3.25 20.19 4.8 21.75 6.71 21.75H18.29C20.2 21.75 21.75 20.2 21.75 18.29V11.01C21.75 10.05 21.06 8.72 20.27 8.18L14.09 3.85C12.95 3.05 11.07 3.09 9.98 3.94Z" fill="#387F3F"/>
<path d="M12.5 19.25C12.09 19.25 11.75 18.91 11.75 18.5V15.5C11.75 15.09 12.09 14.75 12.5 14.75C12.91 14.75 13.25 15.09 13.25 15.5V18.5C13.25 18.91 12.91 19.25 12.5 19.25Z" fill="#387F3F"/>
</svg>
