<svg width="25" height="25" viewBox="0 0 25 25" fill="none" xmlns="http://www.w3.org/2000/svg">
<path d="M18.29 23.25H6.71C3.97 23.25 1.75 21.02 1.75 18.28V10.87C1.75 9.50997 2.59 7.79997 3.67 6.95997L9.06 2.75997C10.68 1.49997 13.27 1.43997 14.95 2.61997L21.13 6.94997C22.32 7.77997 23.25 9.55997 23.25 11.01V18.29C23.25 21.02 21.03 23.25 18.29 23.25ZM9.98 3.93997L4.59 8.13997C3.88 8.69997 3.25 9.96997 3.25 10.87V18.28C3.25 20.19 4.8 21.75 6.71 21.75H18.29C20.2 21.75 21.75 20.2 21.75 18.29V11.01C21.75 10.05 21.06 8.71997 20.27 8.17997L14.09 3.84997C12.95 3.04997 11.07 3.08997 9.98 3.93997Z" fill="#C7C7C7"/>
<path d="M12.5 19.25C12.09 19.25 11.75 18.91 11.75 18.5V15.5C11.75 15.09 12.09 14.75 12.5 14.75C12.91 14.75 13.25 15.09 13.25 15.5V18.5C13.25 18.91 12.91 19.25 12.5 19.25Z" fill="#C7C7C7"/>
</svg>
