<svg width="58" height="59" viewBox="0 0 58 59" fill="none" xmlns="http://www.w3.org/2000/svg">
<path d="M38.5309 54.2116C37.7142 54.2116 36.9216 53.9715 36.225 53.5151L25.9926 46.6935H21.4529C20.9005 46.6935 20.372 46.4293 20.0357 45.997C19.6995 45.5406 19.5794 44.9641 19.7235 44.4356C19.8677 43.8592 19.9397 43.2827 19.9397 42.6582C19.9397 40.7366 19.2191 38.8872 17.9221 37.446C16.4569 35.7887 14.3672 34.8518 12.1333 34.8518C9.99558 34.8518 8.02594 35.6925 6.53672 37.2057C6.08035 37.6861 5.3838 37.8543 4.75929 37.6861C4.13478 37.494 3.63037 36.9896 3.48626 36.341C3.24606 35.2842 3.12598 34.1312 3.12598 32.8822V18.4705C3.12598 10.2077 8.67451 4.65918 16.9373 4.65918H40.9569C49.2196 4.65918 54.7681 10.2077 54.7681 18.4705V32.8822C54.7681 36.8935 53.447 40.3523 50.925 42.8743C48.8113 44.988 46.001 46.2612 42.7583 46.5975V50.0082C42.7583 51.5695 41.8936 52.9866 40.5245 53.7312C39.8759 54.0435 39.2034 54.2116 38.5309 54.2116ZM23.5186 43.0665H26.5211C26.8813 43.0665 27.2177 43.1626 27.5299 43.3788L38.2186 50.5127C38.4828 50.6808 38.699 50.6086 38.8191 50.5366C38.9392 50.4645 39.1554 50.3204 39.1554 49.9842V44.868C39.1554 43.8832 39.9721 43.0665 40.9569 43.0665C44.0074 43.0665 46.5774 42.1058 48.3789 40.3043C50.2044 38.4789 51.1652 35.9087 51.1652 32.8582V18.4464C51.1652 12.2494 47.1539 8.23808 40.9569 8.23808H16.9373C10.7402 8.23808 6.72892 12.2494 6.72892 18.4464V32.57C8.36225 31.6812 10.2118 31.2249 12.1333 31.2249C15.4 31.2249 18.4985 32.618 20.6122 35.02C22.4858 37.1097 23.5426 39.7999 23.5426 42.6342C23.5186 42.7783 23.5186 42.9224 23.5186 43.0665Z" fill="#387F3F"/>
<path d="M12.11 54.0436C8.12274 54.0436 4.37569 51.9299 2.35804 48.4951C1.27716 46.7657 0.700684 44.724 0.700684 42.6343C0.700684 39.1275 2.26196 35.8848 4.97617 33.723C6.99382 32.1137 9.5399 31.225 12.11 31.225C18.4031 31.225 23.5193 36.3412 23.5193 42.6343C23.5193 44.724 22.9428 46.7657 21.8619 48.5192C21.2615 49.528 20.4928 50.4407 19.5801 51.2093C17.5864 53.0348 14.9203 54.0436 12.11 54.0436ZM12.11 34.8279C10.3325 34.8279 8.65118 35.4284 7.23402 36.5573C5.38451 38.0225 4.30362 40.2564 4.30362 42.6343C4.30362 44.0515 4.68794 45.4446 5.43255 46.6456C6.82569 48.9995 9.39578 50.4407 12.11 50.4407C14.0075 50.4407 15.833 49.7441 17.2262 48.4951C17.8507 47.9667 18.3791 47.3421 18.7634 46.6696C19.532 45.4446 19.9164 44.0515 19.9164 42.6343C19.9164 38.3348 16.4095 34.8279 12.11 34.8279Z" fill="#387F3F"/>
<path d="M10.7405 46.8139C10.2841 46.8139 9.82778 46.6458 9.46748 46.2855L7.08957 43.9076C6.393 43.211 6.393 42.0579 7.08957 41.3614C7.78613 40.6648 8.93907 40.6648 9.63564 41.3614L10.7886 42.5144L14.6317 38.9594C15.3523 38.2869 16.5052 38.335 17.1778 39.0556C17.8503 39.7762 17.8023 40.9291 17.0817 41.6017L11.9655 46.3335C11.6052 46.6457 11.1729 46.8139 10.7405 46.8139Z" fill="#387F3F"/>
<path d="M37.3305 27.6221H20.5168C19.532 27.6221 18.7153 26.8054 18.7153 25.8206C18.7153 24.8358 19.532 24.0191 20.5168 24.0191H37.3305C38.3153 24.0191 39.132 24.8358 39.132 25.8206C39.132 26.8054 38.3153 27.6221 37.3305 27.6221Z" fill="#387F3F"/>
</svg>
