<svg width="20" height="20" viewBox="0 0 20 20" fill="none" xmlns="http://www.w3.org/2000/svg">
<path d="M6.66659 10.625H13.3333C13.6749 10.625 13.9583 10.3417 13.9583 10C13.9583 9.65833 13.6749 9.375 13.3333 9.375H6.66659C6.32492 9.375 6.04159 9.65833 6.04159 10C6.04159 10.3417 6.32492 10.625 6.66659 10.625Z" fill="#929292"/>
<path d="M7.49992 18.9584H12.4999C17.0249 18.9584 18.9583 17.0251 18.9583 12.5001V7.50008C18.9583 2.97508 17.0249 1.04175 12.4999 1.04175H7.49992C2.97492 1.04175 1.04158 2.97508 1.04158 7.50008V12.5001C1.04158 17.0251 2.97492 18.9584 7.49992 18.9584ZM12.4999 2.29175C16.3416 2.29175 17.7083 3.65841 17.7083 7.50008V12.5001C17.7083 16.3417 16.3416 17.7084 12.4999 17.7084H7.49992C3.65825 17.7084 2.29158 16.3417 2.29158 12.5001V7.50008C2.29158 3.65841 3.65825 2.29175 7.49992 2.29175H12.4999Z" fill="#929292"/>
</svg>
