<svg width="17" height="17" viewBox="0 0 17 17" fill="none" xmlns="http://www.w3.org/2000/svg">
<path d="M8.51424 14.5421C6.86382 14.5421 5.2134 14.28 3.64799 13.7558C3.05299 13.5504 2.59965 13.1325 2.40132 12.5871C2.1959 12.0417 2.26674 11.4396 2.59257 10.9012L3.40715 9.54833C3.57715 9.265 3.73299 8.69833 3.73299 8.36541V6.31833C3.73299 3.68333 5.87924 1.53708 8.51424 1.53708C11.1492 1.53708 13.2955 3.68333 13.2955 6.31833V8.36541C13.2955 8.69125 13.4513 9.265 13.6213 9.55541L14.4288 10.9012C14.7334 11.4112 14.7901 12.0275 14.5847 12.5871C14.3792 13.1467 13.933 13.5717 13.3734 13.7558C11.8151 14.28 10.1647 14.5421 8.51424 14.5421ZM8.51424 2.59958C6.46715 2.59958 4.79549 4.26416 4.79549 6.31833V8.36541C4.79549 8.8825 4.58299 9.6475 4.3209 10.0937L3.50632 11.4467C3.35049 11.7087 3.30799 11.985 3.40007 12.2187C3.48507 12.4596 3.69757 12.6437 3.98799 12.7429C6.94882 13.7346 10.0867 13.7346 13.0476 12.7429C13.3026 12.6579 13.5009 12.4667 13.593 12.2117C13.6851 11.9567 13.6638 11.6804 13.5222 11.4467L12.7076 10.0937C12.4384 9.63333 12.233 8.87541 12.233 8.35833V6.31833C12.233 4.26416 10.5684 2.59958 8.51424 2.59958Z" fill="#387F3F"/>
<path d="M9.83177 2.79085C9.78218 2.79085 9.7326 2.78376 9.68302 2.7696C9.4776 2.71293 9.27927 2.67043 9.08802 2.6421C8.48593 2.56418 7.9051 2.60668 7.35968 2.7696C7.16135 2.83335 6.94885 2.7696 6.81427 2.62085C6.67968 2.4721 6.63718 2.2596 6.7151 2.06835C7.00552 1.3246 7.71385 0.835846 8.52135 0.835846C9.32885 0.835846 10.0372 1.31751 10.3276 2.06835C10.3984 2.2596 10.363 2.4721 10.2284 2.62085C10.1222 2.73418 9.97343 2.79085 9.83177 2.79085Z" fill="#387F3F"/>
<path d="M8.51416 16.1571C7.81291 16.1571 7.13291 15.8737 6.63708 15.3779C6.14124 14.8821 5.85791 14.2021 5.85791 13.5008H6.92041C6.92041 13.9187 7.09041 14.3296 7.38791 14.6271C7.68541 14.9246 8.09624 15.0946 8.51416 15.0946C9.39249 15.0946 10.1079 14.3792 10.1079 13.5008H11.1704C11.1704 14.9671 9.98041 16.1571 8.51416 16.1571Z" fill="#387F3F"/>
</svg>
