<svg width="25" height="25" viewBox="0 0 25 25" fill="none" xmlns="http://www.w3.org/2000/svg">
<path d="M19.4702 23.25H5.47021C1.72021 23.25 1.72021 21.17 1.72021 19.5V18.5C1.72021 17.54 2.51021 16.75 3.47021 16.75H21.4702C22.4302 16.75 23.2202 17.54 23.2202 18.5V19.5C23.2202 21.17 23.2202 23.25 19.4702 23.25ZM3.47021 18.25C3.33021 18.25 3.22021 18.36 3.22021 18.5V19.5C3.22021 21.14 3.22021 21.75 5.47021 21.75H19.4702C21.7202 21.75 21.7202 21.14 21.7202 19.5V18.5C21.7202 18.36 21.6102 18.25 21.4702 18.25H3.47021Z" fill="#C7C7C7"/>
<path d="M21.22 18.25H3.77002C3.36002 18.25 3.02002 17.91 3.02002 17.5V13.5C3.02002 9.4 5.93002 5.8 9.93002 4.95C10.52 4.82 11.14 4.75 11.77 4.75H13.22C13.86 4.75 14.48 4.82 15.07 4.95C19.07 5.81 21.97 9.41 21.97 13.5V17.5C21.97 17.91 21.64 18.25 21.22 18.25ZM4.52002 16.75H20.47V13.5C20.47 10.11 18.07 7.13 14.75 6.41C14.26 6.3 13.75 6.25 13.22 6.25H11.77C11.25 6.25 10.74 6.3 10.25 6.41C6.93002 7.12 4.52002 10.1 4.52002 13.5V16.75Z" fill="#C7C7C7"/>
<path d="M10.09 6.43C9.76 6.43 9.46 6.21 9.37 5.88C9.29 5.59 9.25 5.3 9.25 5C9.25 3.21 10.71 1.75 12.5 1.75C14.29 1.75 15.75 3.21 15.75 5C15.75 5.3 15.71 5.59 15.63 5.88C15.53 6.26 15.15 6.5 14.75 6.41C14.26 6.3 13.75 6.25 13.22 6.25H11.77C11.25 6.25 10.74 6.3 10.25 6.41C10.2 6.42 10.15 6.43 10.09 6.43ZM11.77 4.75H13.22C13.56 4.75 13.91 4.77 14.24 4.81C14.15 3.93 13.4 3.25 12.5 3.25C11.6 3.25 10.86 3.93 10.76 4.81C11.1 4.77 11.43 4.75 11.77 4.75Z" fill="#C7C7C7"/>
<path d="M15.5 12.25H9.5C9.09 12.25 8.75 11.91 8.75 11.5C8.75 11.09 9.09 10.75 9.5 10.75H15.5C15.91 10.75 16.25 11.09 16.25 11.5C16.25 11.91 15.91 12.25 15.5 12.25Z" fill="#C7C7C7"/>
</svg>
