<svg width="24" height="25" viewBox="0 0 24 25" fill="none" xmlns="http://www.w3.org/2000/svg">
<path d="M8.67 23.25H2C1.59 23.25 1.25 22.91 1.25 22.5V16.5C1.25 14.98 2.48 13.75 4 13.75H8.67C9.08 13.75 9.42 14.09 9.42 14.5V22.5C9.42 22.91 9.08 23.25 8.67 23.25ZM2.75 21.75H7.92V15.25H4C3.31 15.25 2.75 15.81 2.75 16.5V21.75Z" fill="#387F3F"/>
<path d="M15.3302 23.25H8.66016C8.25016 23.25 7.91016 22.91 7.91016 22.5V12.5C7.91016 10.98 9.14016 9.75 10.6602 9.75H13.3302C14.8502 9.75 16.0802 10.98 16.0802 12.5V22.5C16.0802 22.91 15.7502 23.25 15.3302 23.25ZM9.42015 21.75H14.5902V12.5C14.5902 11.81 14.0302 11.25 13.3402 11.25H10.6702C9.98015 11.25 9.42015 11.81 9.42015 12.5V21.75Z" fill="#387F3F"/>
<path d="M22.0001 23.25H15.3301C14.9201 23.25 14.5801 22.91 14.5801 22.5V17.5C14.5801 17.09 14.9201 16.75 15.3301 16.75H20.0001C21.5201 16.75 22.7501 17.98 22.7501 19.5V22.5C22.7501 22.91 22.4101 23.25 22.0001 23.25ZM16.0801 21.75H21.2501V19.5C21.2501 18.81 20.6901 18.25 20.0001 18.25H16.0801V21.75Z" fill="#387F3F"/>
<path d="M13.6999 8.84999C13.4599 8.84999 13.1599 8.77997 12.8199 8.57997L11.9999 8.08998L11.1899 8.56999C10.3699 9.05999 9.82989 8.76998 9.62989 8.62998C9.42989 8.48998 8.99989 8.04998 9.20989 7.12998L9.39989 6.29997L8.71989 5.61997C8.29989 5.19997 8.14989 4.69997 8.29989 4.23997C8.44989 3.77997 8.85989 3.45996 9.43989 3.35996L10.3099 3.20997L10.7999 2.22999C11.3399 1.15999 12.6499 1.15999 13.1799 2.22999L13.6699 3.20997L14.5399 3.35996C15.1199 3.45996 15.5399 3.77997 15.6799 4.23997C15.8299 4.69997 15.6699 5.19997 15.2599 5.61997L14.5799 6.29997L14.7699 7.12998C14.9799 8.05998 14.5499 8.48999 14.3499 8.63999C14.2599 8.71999 14.0299 8.84999 13.6999 8.84999ZM11.9999 6.57997C12.2399 6.57997 12.4799 6.63999 12.6799 6.75999L13.2399 7.08998L13.1199 6.54997C13.0199 6.12997 13.1699 5.61998 13.4799 5.30998L13.9899 4.79997L13.3599 4.68998C12.9599 4.61998 12.5699 4.32998 12.3899 3.96998L11.9999 3.21998L11.6199 3.96998C11.4399 4.32998 11.0499 4.61998 10.6499 4.68998L10.0199 4.78999L10.5299 5.29997C10.8399 5.60997 10.9799 6.11999 10.8899 6.53999L10.7699 7.07997L11.3299 6.74998C11.5199 6.62998 11.7599 6.57997 11.9999 6.57997Z" fill="#387F3F"/>
</svg>
