<svg width="17" height="17" viewBox="0 0 17 17" fill="none" xmlns="http://www.w3.org/2000/svg">
<path d="M7.79175 14.6979C3.98091 14.6979 0.885498 11.6025 0.885498 7.79167C0.885498 3.98084 3.98091 0.885422 7.79175 0.885422C11.6026 0.885422 14.698 3.98084 14.698 7.79167C14.698 11.6025 11.6026 14.6979 7.79175 14.6979ZM7.79175 1.94792C4.56883 1.94792 1.948 4.56875 1.948 7.79167C1.948 11.0146 4.56883 13.6354 7.79175 13.6354C11.0147 13.6354 13.6355 11.0146 13.6355 7.79167C13.6355 4.56875 11.0147 1.94792 7.79175 1.94792Z" fill="#292D32"/>
<path d="M14.2799 16.1429C14.2233 16.1429 14.1666 16.1358 14.117 16.1287C13.7841 16.0862 13.182 15.8596 12.842 14.8467C12.6649 14.3154 12.7287 13.7842 13.0191 13.3804C13.3095 12.9767 13.7983 12.75 14.3579 12.75C15.0804 12.75 15.647 13.0263 15.902 13.515C16.157 14.0037 16.0862 14.6271 15.6824 15.2292C15.1795 15.9871 14.6341 16.1429 14.2799 16.1429ZM13.8549 14.5137C13.9754 14.8821 14.1454 15.0662 14.2587 15.0804C14.372 15.0946 14.5845 14.96 14.8041 14.6412C15.0095 14.3367 15.0237 14.1171 14.9741 14.0179C14.9245 13.9187 14.7262 13.8125 14.3579 13.8125C14.1383 13.8125 13.9754 13.8833 13.8833 14.0037C13.7983 14.1242 13.7841 14.3083 13.8549 14.5137Z" fill="#292D32"/>
</svg>
