<svg width="37" height="37" viewBox="0 0 37 37" fill="none" xmlns="http://www.w3.org/2000/svg">
<path d="M33.8704 3.59207C32.7604 2.32791 31.1108 1.54166 29.2917 1.54166C27.565 1.54166 25.9925 2.25082 24.8671 3.40707C24.2196 4.06999 23.7262 4.87166 23.4333 5.76582C23.2329 6.38249 23.125 7.02999 23.125 7.70832C23.125 8.86457 23.4487 9.95916 24.0192 10.8842C24.3275 11.4083 24.7283 11.8862 25.1908 12.2871C26.27 13.2737 27.7038 13.875 29.2917 13.875C29.97 13.875 30.6175 13.7671 31.2188 13.5512C32.6371 13.1042 33.8242 12.1329 34.5642 10.8842C34.8879 10.36 35.1346 9.75874 35.2733 9.14207C35.3967 8.67957 35.4583 8.20166 35.4583 7.70832C35.4583 6.13582 34.8571 4.68666 33.8704 3.59207ZM31.5888 8.83374H30.4479V10.0362C30.4479 10.6683 29.9238 11.1925 29.2917 11.1925C28.6596 11.1925 28.1354 10.6683 28.1354 10.0362V8.83374H26.9946C26.3625 8.83374 25.8383 8.30957 25.8383 7.67749C25.8383 7.04541 26.3625 6.52124 26.9946 6.52124H28.1354V5.42666C28.1354 4.79457 28.6596 4.27041 29.2917 4.27041C29.9238 4.27041 30.4479 4.79457 30.4479 5.42666V6.52124H31.5888C32.2208 6.52124 32.745 7.04541 32.745 7.67749C32.745 8.30957 32.2363 8.83374 31.5888 8.83374Z" fill="#387F3F"/>
<path d="M33.9167 18.5C33.9167 16.4804 33.5313 14.5379 32.8067 12.765C32.3288 13.1042 31.7892 13.3663 31.2188 13.5513C31.0492 13.6129 30.8796 13.6592 30.6946 13.7054C31.2805 15.1854 31.6042 16.8042 31.6042 18.5C31.6042 22.0767 30.155 25.3296 27.8117 27.7038C27.3646 27.1333 26.7942 26.6092 26.1159 26.1621C21.938 23.3563 15.093 23.3563 10.8842 26.1621C10.2059 26.6092 9.65088 27.1333 9.18838 27.7038C6.84504 25.3296 5.39587 22.0767 5.39587 18.5C5.39587 11.2696 11.2696 5.39584 18.5 5.39584C20.1805 5.39584 21.7992 5.71959 23.2792 6.30543C23.3255 6.12043 23.3717 5.95084 23.4334 5.76584C23.6184 5.19543 23.8805 4.67126 24.235 4.19334C22.4621 3.46876 20.5196 3.08334 18.5 3.08334C10.0055 3.08334 3.08337 10.0054 3.08337 18.5C3.08337 22.9708 5.01046 26.9946 8.06296 29.8158C8.06296 29.8313 8.06296 29.8313 8.04754 29.8467C8.20171 30.0009 8.38671 30.1242 8.54087 30.2629C8.63338 30.34 8.71046 30.4171 8.80296 30.4788C9.08046 30.71 9.38879 30.9258 9.68171 31.1417C9.78963 31.2188 9.88213 31.2804 9.99004 31.3575C10.283 31.5579 10.5913 31.7429 10.915 31.9125C11.023 31.9742 11.1463 32.0513 11.2542 32.1129C11.5625 32.2825 11.8863 32.4367 12.2255 32.5754C12.3488 32.6371 12.4721 32.6988 12.5955 32.745C12.9346 32.8838 13.2738 33.0071 13.613 33.115C13.7363 33.1613 13.8596 33.2075 13.983 33.2383C14.353 33.3463 14.723 33.4388 15.093 33.5313C15.2009 33.5621 15.3088 33.5929 15.4321 33.6083C15.8638 33.7008 16.2955 33.7625 16.7425 33.8088C16.8042 33.8088 16.8659 33.8242 16.9275 33.8396C17.4517 33.8859 17.9759 33.9167 18.5 33.9167C19.0242 33.9167 19.5484 33.8859 20.0571 33.8396C20.1188 33.8396 20.1805 33.8242 20.2421 33.8088C20.6892 33.7625 21.1209 33.7008 21.5525 33.6083C21.6605 33.5929 21.7684 33.5467 21.8917 33.5313C22.2617 33.4388 22.6471 33.3617 23.0017 33.2383C23.125 33.1921 23.2484 33.1458 23.3717 33.115C23.7109 32.9917 24.0655 32.8838 24.3892 32.745C24.5125 32.6988 24.6359 32.6371 24.7592 32.5754C25.083 32.4367 25.4067 32.2825 25.7305 32.1129C25.8538 32.0513 25.9617 31.9742 26.0696 31.9125C26.378 31.7275 26.6863 31.5579 26.9946 31.3575C27.1025 31.2958 27.195 31.2188 27.303 31.1417C27.6113 30.9258 27.9042 30.71 28.1817 30.4788C28.2742 30.4017 28.3513 30.3246 28.4438 30.2629C28.6134 30.1242 28.783 29.9854 28.9371 29.8467C28.9371 29.8313 28.9371 29.8313 28.9217 29.8158C31.9896 26.9946 33.9167 22.9708 33.9167 18.5Z" fill="#387F3F"/>
<path d="M18.5 10.6837C15.3088 10.6837 12.7188 13.2737 12.7188 16.465C12.7188 19.5946 15.17 22.1383 18.4229 22.2308C18.4692 22.2308 18.5308 22.2308 18.5617 22.2308C18.5925 22.2308 18.6387 22.2308 18.6696 22.2308C18.685 22.2308 18.7004 22.2308 18.7004 22.2308C21.8146 22.1229 24.2658 19.5946 24.2812 16.465C24.2812 13.2737 21.6912 10.6837 18.5 10.6837Z" fill="#387F3F"/>
</svg>
