<svg width="37" height="37" viewBox="0 0 37 37" fill="none" xmlns="http://www.w3.org/2000/svg">
<path d="M33.8704 3.59207C32.7604 2.32791 31.1108 1.54166 29.2917 1.54166C27.565 1.54166 25.9925 2.25082 24.8671 3.40707C24.2196 4.06999 23.7262 4.87166 23.4333 5.76582C23.2329 6.38249 23.125 7.02999 23.125 7.70832C23.125 8.86457 23.4487 9.95916 24.0192 10.8842C24.3275 11.4083 24.7283 11.8862 25.1908 12.2871C26.27 13.2737 27.7038 13.875 29.2917 13.875C29.97 13.875 30.6175 13.7671 31.2188 13.5512C32.6371 13.1042 33.8242 12.1329 34.5642 10.8842C34.8879 10.36 35.1346 9.75874 35.2733 9.14207C35.3967 8.67957 35.4583 8.20166 35.4583 7.70832C35.4583 6.13582 34.8571 4.68666 33.8704 3.59207ZM31.5888 8.83374H30.4479V10.0362C30.4479 10.6683 29.9238 11.1925 29.2917 11.1925C28.6596 11.1925 28.1354 10.6683 28.1354 10.0362V8.83374H26.9946C26.3625 8.83374 25.8383 8.30957 25.8383 7.67749C25.8383 7.04541 26.3625 6.52124 26.9946 6.52124H28.1354V5.42666C28.1354 4.79457 28.6596 4.27041 29.2917 4.27041C29.9238 4.27041 30.4479 4.79457 30.4479 5.42666V6.52124H31.5888C32.2208 6.52124 32.745 7.04541 32.745 7.67749C32.745 8.30957 32.2363 8.83374 31.5888 8.83374Z" fill="#387F3F"/>
<path d="M33.9166 18.5C33.9166 16.4804 33.5312 14.5379 32.8066 12.765C32.3287 13.1042 31.7891 13.3663 31.2187 13.5513C31.0491 13.6129 30.8795 13.6592 30.6945 13.7054C31.2803 15.1854 31.6041 16.8042 31.6041 18.5C31.6041 22.0767 30.1549 25.3296 27.8116 27.7038C27.3645 27.1333 26.7941 26.6092 26.1158 26.1621C21.9378 23.3563 15.0928 23.3563 10.8841 26.1621C10.2058 26.6092 9.65075 27.1333 9.18825 27.7038C6.84492 25.3296 5.39575 22.0767 5.39575 18.5C5.39575 11.2696 11.2695 5.39584 18.4999 5.39584C20.1803 5.39584 21.7991 5.71959 23.2791 6.30543C23.3253 6.12043 23.3716 5.95084 23.4333 5.76584C23.6183 5.19543 23.8803 4.67126 24.2349 4.19334C22.462 3.46876 20.5195 3.08334 18.4999 3.08334C10.0053 3.08334 3.08325 10.0054 3.08325 18.5C3.08325 22.9708 5.01034 26.9946 8.06284 29.8158C8.06284 29.8313 8.06284 29.8313 8.04742 29.8467C8.20159 30.0009 8.38659 30.1242 8.54075 30.2629C8.63325 30.34 8.71034 30.4171 8.80284 30.4788C9.08034 30.71 9.38867 30.9258 9.68159 31.1417C9.7895 31.2188 9.882 31.2804 9.98992 31.3575C10.2828 31.5579 10.5912 31.7429 10.9149 31.9125C11.0228 31.9742 11.1462 32.0513 11.2541 32.1129C11.5624 32.2825 11.8862 32.4367 12.2253 32.5754C12.3487 32.6371 12.472 32.6988 12.5953 32.745C12.9345 32.8838 13.2737 33.0071 13.6128 33.115C13.7362 33.1613 13.8595 33.2075 13.9828 33.2383C14.3528 33.3463 14.7228 33.4388 15.0928 33.5313C15.2008 33.5621 15.3087 33.5929 15.432 33.6083C15.8637 33.7008 16.2953 33.7625 16.7424 33.8088C16.8041 33.8088 16.8658 33.8242 16.9274 33.8396C17.4516 33.8859 17.9758 33.9167 18.4999 33.9167C19.0241 33.9167 19.5483 33.8859 20.057 33.8396C20.1187 33.8396 20.1803 33.8242 20.242 33.8088C20.6891 33.7625 21.1208 33.7008 21.5524 33.6083C21.6603 33.5929 21.7683 33.5467 21.8916 33.5313C22.2616 33.4388 22.647 33.3617 23.0016 33.2383C23.1249 33.1921 23.2483 33.1458 23.3716 33.115C23.7108 32.9917 24.0653 32.8838 24.3891 32.745C24.5124 32.6988 24.6358 32.6371 24.7591 32.5754C25.0828 32.4367 25.4066 32.2825 25.7303 32.1129C25.8537 32.0513 25.9616 31.9742 26.0695 31.9125C26.3778 31.7275 26.6862 31.5579 26.9945 31.3575C27.1024 31.2958 27.1949 31.2188 27.3028 31.1417C27.6112 30.9258 27.9041 30.71 28.1816 30.4788C28.2741 30.4017 28.3512 30.3246 28.4437 30.2629C28.6133 30.1242 28.7828 29.9854 28.937 29.8467C28.937 29.8313 28.937 29.8313 28.9216 29.8158C31.9895 26.9946 33.9166 22.9708 33.9166 18.5Z" fill="#387F3F"/>
<path d="M18.5 10.6837C15.3088 10.6837 12.7188 13.2737 12.7188 16.465C12.7188 19.5946 15.17 22.1383 18.4229 22.2308C18.4692 22.2308 18.5308 22.2308 18.5617 22.2308C18.5925 22.2308 18.6387 22.2308 18.6696 22.2308C18.685 22.2308 18.7004 22.2308 18.7004 22.2308C21.8146 22.1229 24.2658 19.5946 24.2812 16.465C24.2812 13.2737 21.6912 10.6837 18.5 10.6837Z" fill="#387F3F"/>
</svg>
