<svg viewBox="0 0 1045.411 1066.744" xmlns="http://www.w3.org/2000/svg"><path d="m444.51 820.984c61.95 0 112.174 50.222 112.174 112.175s-50.222 112.174-112.175 112.174-112.176-50.222-112.176-112.175 50.222-112.176 112.175-112.176zm0 177.804c36.245 0 65.628-29.383 65.628-65.63s-29.383-65.628-65.63-65.628c-36.245 0-65.628 29.383-65.628 65.63 0 36.245 29.383 65.628 65.63 65.628zm399.825-177.804c61.952 0 112.175 50.222 112.175 112.175s-50.222 112.174-112.175 112.174c-61.952 0-112.175-50.222-112.175-112.175s50.222-112.176 112.175-112.176zm0 177.804c36.246 0 65.63-29.383 65.63-65.63s-29.384-65.628-65.63-65.628-65.63 29.383-65.63 65.63c0 36.245 29.384 65.628 65.63 65.628zm-.93-131.26h-465.457c-74.147-.022-134.245-60.134-134.245-134.283 0-70.873 54.906-128.923 124.502-133.933l.433-.025-139.634-454.657c-14.51-44.87-55.92-76.753-104.778-76.753h-124.226v-46.543h123.812l.848-.002c69.525 0 128.445 45.41 148.72 108.186l.31 1.106 157.6 514.884h-53.34c-48.457 0-87.74 39.282-87.74 87.738s39.283 87.738 87.74 87.738h465.454zm107.38-222.02h-550.96v-46.545h515.863l83.177-290.91v-62.37h-687.475v-46.545h734.02v115.432z"/></svg>