<svg width="120" height="120" viewBox="0 0 120 120" fill="none" xmlns="http://www.w3.org/2000/svg">
<path d="M98.6972 58.3478C95.0447 54.0826 93.385 50.3864 93.385 44.1069V41.9717C93.385 33.7888 91.5016 28.5164 87.4069 23.2441C81.0959 15.0561 70.4715 10.1211 60.0707 10.1211H59.6285C49.4464 10.1211 39.1549 14.8295 32.7346 22.6851C28.4163 28.0632 26.3142 33.5622 26.3142 41.9717V44.1069C26.3142 50.3864 24.7638 54.0826 21.0021 58.3478C18.2341 61.49 17.3496 65.5286 17.3496 69.8996C17.3496 74.2756 18.7857 78.42 21.6679 81.7888C25.4297 85.8275 30.7419 88.4057 36.1684 88.8539C44.0248 89.7503 51.8813 90.0876 59.8521 90.0876C67.8179 90.0876 75.6744 89.5236 83.5358 88.8539C88.9573 88.4057 94.2695 85.8275 98.0313 81.7888C100.909 78.42 102.35 74.2756 102.35 69.8996C102.35 65.5286 101.465 61.49 98.6972 58.3478Z" fill="#005AFF"/>
<path opacity="0.4" d="M69.8934 96.2636C67.3938 95.7298 52.1629 95.7298 49.6633 96.2636C47.5265 96.7571 45.2158 97.9052 45.2158 100.423C45.3401 102.825 46.7464 104.945 48.6943 106.29L48.6894 106.295C51.2088 108.259 54.1655 109.507 57.2614 109.956C58.9112 110.182 60.5909 110.172 62.3003 109.956C65.3912 109.507 68.3479 108.259 70.8674 106.295L70.8624 106.29C72.8104 104.945 74.2167 102.825 74.3409 100.423C74.3409 97.9052 72.0302 96.7571 69.8934 96.2636Z" fill="#005AFF"/>
</svg>
